<?xml version="1.0" encoding="utf-8"?>
<!DOCTYPE svg PUBLIC "-//W3C//DTD SVG 20010904//EN" "http://www.w3.org/TR/2001/REC-SVG-20010904/DTD/svg10.dtd">
<svg version="1.0" xmlns="http://www.w3.org/2000/svg" width="500px" height="500px" viewBox="0 0 500 500" preserveAspectRatio="xMidYMid meet">
 <g fill="#000000">
  <path d="M93 254 l0 -130 130 0 130 0 0 130 0 130 -130 0 -130 0 0 -130z m250.8 0.3 l-0.3 -119.8 -119.7 -0.3 -119.8 -0.2 0 120 0 120 120 0 120 0 -0.2 -119.7z"/>
  <path d="M207.7 362 c-11.7 -1.9 -22.6 -10.7 -26.7 -21.8 -5 -13.3 -4.6 -35 0.9 -46.7 3.2 -7 9.1 -13.4 14.8 -16.3 8.8 -4.5 23.1 -5.4 33.3 -2.3 5.2 1.6 6.2 1.7 6.7 0.5 0.3 -0.9 2 -1.4 4.4 -1.4 l3.9 0 0 14.1 0 14 -4.2 -0.3 c-3.8 -0.3 -4.3 -0.6 -4.9 -3.4 -2 -10.3 -13.2 -17.2 -22.9 -14.3 -15.2 4.6 -22.7 29.3 -15.4 51.1 2.2 6.8 10.3 15.2 16 16.7 8.8 2.3 19.1 -3.8 21.8 -13 1.2 -4.2 1.5 -4.4 5.5 -4.7 l4.1 -0.3 0 13.5 0 13.6 -3.8 0 c-2.1 0 -4.3 -0.5 -4.8 -1 -0.7 -0.7 -2.4 -0.6 -5.2 0.4 -5.5 2 -16.4 2.7 -23.5 1.6z"/>
  <path d="M138.3 361.3 l-27.3 -0.3 0 -4.8 c0 -4.4 1.4 -6.9 20.9 -38.2 l20.9 -33.5 -11.2 -0.3 c-6.1 -0.1 -12.1 0 -13.3 0.3 -2.2 0.5 -2.3 0.9 -3.9 12.8 l-0.6 4.7 -4.3 0 -4.2 0 -0.7 -13.6 c-0.4 -7.5 -0.5 -13.8 -0.4 -13.9 0.2 -0.1 13.9 0 30.6 0.3 l30.2 0.5 0 4.5 c0 4.2 -1.6 7.2 -20.5 37.4 -11.3 18 -20.5 33 -20.5 33.3 0 0.3 6.4 0.4 14.2 0.3 l14.2 -0.3 0.7 -3.5 c0.4 -1.9 1 -5.6 1.4 -8.2 l0.6 -4.8 4.5 0 4.4 0 0 6.3 c0 3.5 0.3 9.8 0.6 14 l0.7 7.7 -4.9 -0.2 c-2.7 -0.2 -17.2 -0.4 -32.1 -0.5z"/>
  <path d="M249 288.6 c0 -4.2 0.4 -4.8 6.1 -9.9 l6.2 -5.5 -4.6 0.5 c-3 0.4 -5.2 0.1 -6.2 -0.7 -1.7 -1.4 -2 -6.6 -0.6 -10.3 2.4 -6.2 21.1 -6.3 23.5 -0.2 1.1 3 0.6 10.1 -0.9 12.1 -1.9 2.5 -1.9 3.4 0 3.4 1.2 0 1.5 1.5 1.5 7.5 l0 7.5 -12.5 0 -12.5 0 0 -4.4z m13.1 -21.3 c-0.9 -1.5 -1 -1.2 -1 1.7 0 2.9 0.1 3.2 1 1.8 0.7 -1.2 0.7 -2.4 0 -3.5z"/>
 </g>
 <g fill="#ffffff">
  <path d="M0 250 l0 -250 250 0 250 0 0 250 0 250 -250 0 -250 0 0 -250z m350 4 l0 -127 -127 0 -127 0 0 127 0 127 127 0 127 0 0 -127z"/>
  <path d="M101 254 l0 -123 122.8 0.2 122.7 0.3 0.3 122.8 0.2 122.7 -123 0 -123 0 0 -123z m129.6 102.4 c7.4 -2.9 8 -2.9 8.7 -0.4 0.3 1.1 1 2 1.6 2 0.7 0 1.1 -3.6 1.1 -10.6 0 -11.5 -1.2 -13.4 -3.6 -5.5 -2.2 7.5 -9.1 12.7 -18.2 13.8 -7.7 0.9 -13 -1.1 -18.9 -7.2 -4 -4.1 -5.6 -6.7 -7.1 -11.7 -5.7 -18.5 -2.5 -40.3 7.3 -50.1 12 -12 34.3 -6.9 37.4 8.6 0.4 1.7 1.2 3.2 1.9 3.5 0.9 0.3 1.2 -2.4 1.2 -10.7 0 -11.2 -0.7 -13.3 -2.9 -8.5 -0.8 1.9 -1.6 2.4 -2.9 1.8 -6.1 -2.7 -15.3 -5.4 -18.4 -5.4 -24.6 -0.1 -39.8 20 -36.7 48.8 2 18.5 13.6 31.9 29.6 34 7.6 1.1 12.5 0.5 19.9 -2.4z m-59 -0.5 c-0.3 -1.7 -0.6 -6.7 -0.6 -11 0 -6.2 -0.3 -7.9 -1.4 -7.9 -1 0 -1.7 1.6 -2.1 4.8 -0.4 2.6 -1 6.3 -1.4 8.2 l-0.7 3.5 -19.3 0.3 c-15.3 0.2 -19.1 0 -18.5 -1 0.4 -0.7 10.5 -17.1 22.6 -36.4 12 -19.2 21.8 -35.7 21.8 -36.6 0 -1.4 -3.1 -1.7 -27.2 -2 -15 -0.2 -27.4 -0.4 -27.4 -0.3 -0.1 0 0.1 4.8 0.4 10.8 0.3 8.1 0.8 10.7 1.8 10.7 0.8 0 1.4 -0.6 1.4 -1.2 0.1 -4.7 2.3 -15.3 3.3 -16 0.6 -0.4 8.8 -0.8 18.1 -0.8 13.4 0 16.7 0.3 16.3 1.3 -0.3 0.7 -10.3 17 -22.3 36.3 -12 19.2 -22 35.9 -22.2 37.1 l-0.4 2.3 27.3 0.3 c15.1 0.1 28.2 0.3 29.3 0.5 1.6 0.2 1.8 -0.3 1.2 -2.9z m99.3 -70.6 c-0.1 -4.4 -0.1 -4.6 -1.1 -2 -0.9 2.6 -1.2 2.7 -8 2.7 l-7.1 0 4.8 -4.2 c2.6 -2.4 5.4 -4.6 6.1 -5.1 2.6 -1.5 5.6 -7.7 5 -10.2 -0.7 -2.9 -5.3 -5.5 -9.3 -5.4 l-2.8 0.1 2.9 0.8 c3.6 1.1 4.6 2.5 4.6 6.7 0 4.8 -1.6 7.5 -8.1 13.2 -8.3 7.4 -8 8.1 3.6 8.1 l9.5 0 -0.1 -4.7z m-14.5 -14.9 c2 -0.8 2.1 -4.4 0.1 -4.4 -2 0 -1.9 -1.6 0.3 -3 1.6 -1.1 1.6 -1.1 -0.1 -0.6 -1 0.3 -2.1 0.6 -2.3 0.6 -0.3 0 -0.9 1.2 -1.4 2.6 -0.7 1.9 -0.7 3.1 0.1 4 1.3 1.6 1.2 1.6 3.3 0.8z"/>
 </g>
</svg>